<svg version="1.1" id="Layer_1" xmlns="http://www.w3.org/2000/svg" xmlns:xlink="http://www.w3.org/1999/xlink" x="0px" y="0px"
	 width="1000" height="300" viewBox="0 0 720 280" enable-background="new 0 0 720 280" xml:space="preserve">
<g>
	<path fill-rule="evenodd" clip-rule="evenodd" fill="#FFFFFF" d="M-0.481-7.521c240.56,0,481.122,0,721.682,0
		c0,95.92,0,191.84,0,287.761c-240.561,0-481.122,0-721.682,0C-0.481,184.319-0.481,88.399-0.481-7.521z M153.636,219.059
		c2.212-2.331,4.425-4.662,6.637-6.993c0.542-0.62,1.125-1.21,1.619-1.866c1.19-1.577,2.339-3.185,3.505-4.78
		c0.866-5.753,1.735-11.505,2.596-17.259c0.458-3.065,0.908-6.132,1.348-9.199c0.45-3.146,0.886-6.294,1.31-9.443
		c0.016-0.122-0.17-0.272-0.262-0.41c-0.159,0.085-0.317,0.171-0.476,0.256l0.011-0.005c-0.51,0.211-1.014,0.439-1.532,0.63
		c-5.397,1.979-10.797,3.953-16.196,5.929c-4.98,1.229-9.96,2.459-14.94,3.688c0.292-0.302,0.55-0.65,0.883-0.899
		c2.87-2.145,5.754-4.271,8.634-6.403c2.599-1.985,5.198-3.972,7.797-5.957c0.073-0.032,0.158-0.05,0.216-0.1
		c5.221-4.471,10.445-8.938,15.645-13.432c0.256-0.222,0.377-0.672,0.436-1.036c0.304-1.885,0.568-3.776,0.845-5.665
		c0.601-4.095,1.203-8.19,1.799-12.286c0.688-4.725,1.375-9.449,2.058-14.174c0.586-4.051,1.166-8.103,1.766-12.277
		c-0.288,0.123-0.486,0.207-0.685,0.292c-0.089,0.081-0.179,0.163-0.269,0.244l0.011-0.013c-0.188,0.03-0.396,0.021-0.563,0.098
		c-7.821,3.58-15.64,7.167-23.458,10.754c-0.196,0.02-0.396,0.021-0.587,0.062c-3.954,0.848-7.908,1.699-11.861,2.55
		c0.342-0.295,0.684-0.59,1.025-0.886c3.509-2.56,7.062-5.062,10.513-7.698c3.09-2.361,6.079-4.855,9.088-7.319
		c1.473-1.206,2.893-2.476,4.337-3.717c0.436-0.349,0.886-0.681,1.304-1.049c8.265-7.259,16.178-14.879,23.553-23.046
		c6.97-7.718,13.664-15.657,19.32-24.419c0.243-0.376,0.869-0.713,1.317-0.714c3.036-0.003,6.071,0.11,9.107,0.144
		c2.697,0.03,5.395,0.006,8.313,0.006c-11.707-12.458-23.29-24.785-34.9-37.14c-18.257,11.275-36.389,22.473-54.804,33.846
		c8.25,0.795,16.154,1.558,24.059,2.32c0.044,0.125,0.089,0.25,0.134,0.375c-3.841,4.002-7.616,8.07-11.542,11.987
		c-3.362,3.354-6.896,6.534-10.353,9.791c-4.4,3.565-8.726,7.229-13.225,10.666c-3.894,2.975-7.984,5.691-11.988,8.522
		c-4.309,2.515-8.563,5.133-12.945,7.515c-3.852,2.093-7.848,3.922-11.78,5.869c-4.647,1.995-9.28,4.026-13.947,5.973
		c-3.819,1.592-7.681,3.084-11.523,4.621c-3.021,1.059-6.031,2.153-9.067,3.17c-4.15,1.389-8.319,2.72-12.479,4.076
		c-0.195,0.031-0.394,0.048-0.586,0.094c-6.088,1.433-12.168,2.904-18.269,4.284c-1.853,0.419-3.763,0.587-5.729,0.883
		c0.142,0.264,0.218,0.443,0.325,0.601c7.952,11.626,15.903,23.254,23.88,34.864c0.201,0.293,0.694,0.384,1.051,0.569
		c3.865,0.709,7.705,1.774,11.6,2.046c6.512,0.456,13.059,0.475,19.592,0.535c2.896,0.026,5.796-0.293,8.694-0.455
		c1.07-0.004,2.14-0.009,3.21-0.013c-0.406,0.231-0.795,0.505-1.222,0.689c-2.82,1.221-5.647,2.422-8.473,3.629
		c-4.477,1.615-8.955,3.23-13.432,4.846c-4.996,1.455-9.992,2.91-14.988,4.365c0.018,0.05,0.023,0.092,0.045,0.123
		c6.653,9.601,13.303,19.203,19.979,28.788c0.18,0.259,0.627,0.333,0.95,0.493c0.239,0.021,0.479,0.042,0.718,0.063
		c6.814,1.51,13.626,3.033,20.444,4.523c2.717,0.595,5.449,1.119,8.174,1.676c-0.738,0.321-1.477,0.643-2.215,0.964
		c-3.441,1.177-6.881,2.354-10.322,3.53c-3.847,0.983-7.694,1.967-11.596,2.964c0.11,0.194,0.209,0.405,0.34,0.593
		c5.113,7.368,10.24,14.728,15.33,22.111c0.487,0.707,1.011,1.105,1.869,1.257c9.033,1.598,18.087,3.094,27.08,4.897
		c7.104,1.426,14.135,3.222,21.184,4.909c0.78,0.188,0.983-0.225,1.302-0.671c7.248-10.132,14.498-20.263,21.743-30.397
		c0.208-0.29,0.377-0.608,0.661-1.07c-0.374,0.095-0.523,0.133-0.673,0.17c-4.751,1.188-9.477,2.493-14.262,3.523
		c-3.108,0.669-6.303,0.939-9.459,1.389c-0.531,0.004-1.062,0.007-1.593,0.011c0.312-0.241,0.617-0.49,0.935-0.723
		c1.832-1.34,3.667-2.675,5.501-4.012C148.029,223.887,150.833,221.473,153.636,219.059z M425.617,136.712
		c-0.035,0.25-0.064,0.366-0.064,0.481c-0.002,9.877-0.164,19.758,0.045,29.631c0.19,8.979,5.766,15.318,13.998,16.082
		c6.596,0.612,12.262-1.184,16.198-6.91c0.145-0.209,0.235-0.454,0.351-0.684c0.104,0.081,0.209,0.161,0.313,0.241
		c0,2.222,0,4.443,0,6.684c5.044,0,10.012,0,14.975,0c0-15.218,0-30.354,0-45.508c-5.02,0-9.961,0-15.004,0c0,0.489,0,0.919,0,1.349
		c0,6.999,0.013,13.997-0.007,20.995c-0.007,2.471-0.429,4.857-1.886,6.937c-2.005,2.861-4.845,3.845-8.179,3.297
		c-2.893-0.476-4.636-2.361-5.354-5.156c-0.236-0.917-0.345-1.892-0.349-2.84c-0.026-7.758-0.015-15.517-0.015-23.274
		c0-0.428,0-0.856,0-1.323C435.576,136.712,430.633,136.712,425.617,136.712z M480.746,136.721c0,15.263,0,30.4,0,45.538
		c5.02,0,9.96,0,15.005,0c0-0.491,0-0.923,0-1.354c0-7.239-0.013-14.479,0.015-21.719c0.004-0.949,0.107-1.923,0.338-2.843
		c1.542-6.135,8.845-8.9,13.516-5.128c2.063,1.667,2.716,3.979,2.723,6.508c0.02,7.76,0.007,15.519,0.007,23.278
		c0,0.42,0,0.841,0,1.229c5.09,0,10.022,0,14.981,0c0-10.01,0.107-19.93-0.032-29.847c-0.129-9.182-6.069-15.655-14.774-16.247
		c-6.063-0.413-11.39,1.136-15.441,5.957c-0.398,0.474-0.757,0.981-1.327,1.725c0-2.549,0-4.799,0-7.097
		C490.681,136.721,485.738,136.721,480.746,136.721z M550.23,182.265c0-0.536,0-0.97,0-1.404c0-7.239-0.042-14.479,0.037-21.718
		c0.016-1.404,0.305-2.881,0.813-4.189c1.654-4.259,6.558-6.425,10.884-4.954c3.018,1.025,4.855,3.892,4.861,7.647
		c0.01,7.76,0.003,15.519,0.003,23.278c0,0.429,0,0.858,0,1.333c5.034,0,9.97,0,14.914,0c0.028-0.174,0.063-0.287,0.063-0.4
		c0.003-9.799,0.1-19.6-0.023-29.397c-0.117-9.379-6.234-15.732-14.704-16.316c-5.134-0.354-9.864,0.636-13.791,4.183
		c-1.071,0.967-1.974,2.121-3.09,3.335c0-2.409,0-4.664,0-6.931c-5.069,0-10.011,0-15.001,0c0,15.201,0,30.34,0,45.533
		C540.19,182.265,545.137,182.265,550.23,182.265z M601.223,163.555c10.512,0,21.001,0,31.559,0
		c0.236-3.525,0.094-6.904-0.659-10.226c-1.778-7.84-6.088-13.542-13.989-16.024c-4.265-1.339-8.666-1.487-13.048-0.792
		c-8.412,1.335-14.501,5.745-17.597,13.86c-1.598,4.189-1.951,8.556-1.372,12.971c1.08,8.238,5.185,14.35,13.027,17.514
		c6.731,2.716,13.636,2.656,20.532,0.56c4.05-1.23,7.474-3.475,10.337-6.694c-2.545-2.54-5.033-5.025-7.523-7.508
		c-0.106-0.106-0.233-0.193-0.402-0.333c-2.63,2.523-5.672,4.107-9.3,4.551C607.267,172.107,602.164,168.719,601.223,163.555z
		 M198.996,182.32c0.503,0,0.934,0,1.364,0c7.556,0,15.111,0.011,22.667-0.01c1.354-0.004,2.716-0.072,4.062-0.224
		c17.096-1.923,29.658-17.015,25.7-35.926c-2.828-13.506-14.732-22.832-28.735-22.877c-8.035-0.026-16.07-0.005-24.106-0.003
		c-0.306,0-0.613,0.027-0.952,0.042C198.996,142.985,198.996,162.565,198.996,182.32z M663.407,166.746
		c-1.399,2.874-2.727,5.726-4.177,8.513c-0.503,0.967-0.45,1.452,0.496,2.089c6.857,4.609,14.46,6.142,22.575,5.551
		c3.797-0.276,7.378-1.307,10.558-3.49c4.455-3.06,6.17-7.4,5.718-12.647c-0.436-5.044-3.521-8.147-7.908-10.115
		c-1.884-0.846-3.866-1.48-5.825-2.15c-2.636-0.902-5.317-1.675-7.929-2.64c-1.651-0.61-2.231-1.569-2.102-2.826
		c0.127-1.234,0.92-2.134,2.658-2.299c1.682-0.159,3.496-0.206,5.089,0.259c3.727,1.086,7.355,2.509,11.174,3.849
		c1.521-2.938,3.201-6.184,4.902-9.47c-0.217-0.15-0.401-0.298-0.604-0.416c-6.435-3.719-13.377-5.366-20.78-4.886
		c-4.514,0.293-8.645,1.672-12.191,4.666c-5.058,4.269-6.188,14.708,0.22,19.472c2.69,2,5.754,3.055,8.847,4.104
		c2.639,0.896,5.319,1.674,7.932,2.641c0.767,0.283,1.565,0.902,1.995,1.59c0.988,1.582-0.128,3.438-2.409,3.62
		c-2.195,0.175-4.472,0.07-6.641-0.314C670.792,171.099,667.013,169.198,663.407,166.746z M424.588,120.821
		c-4.882-1.77-9.787-2.358-14.784-1.268c-7.95,1.734-12.364,7.289-12.364,15.339c0,1.306,0,2.611,0,4.038c-2.14,0-4.153,0-6.138,0
		c0,3.384,0,6.645,0,10.039c2.08,0,4.092,0,6.192,0c0,11.19,0,22.245,0,33.272c5.029,0,9.964,0,15.012,0c0-11.129,0-22.181,0-33.321
		c3.377,0,6.641,0,9.973,0c0-3.386,0-6.68,0-10.085c-3.37,0-6.67,0-9.995,0c0-1.229-0.048-2.351,0.01-3.466
		c0.104-1.981,1.16-3.462,3.105-3.915c1.2-0.279,2.521-0.213,3.766-0.08c1.079,0.116,2.125,0.543,3.279,0.858
		C423.299,128.387,423.939,124.627,424.588,120.821z M342.135,198.636c2.663,0,5.245,0,8.009,0c0-8.192,0-16.329,0-24.759
		c0.42,0.618,0.636,0.954,0.871,1.276c0.259,0.355,0.521,0.709,0.805,1.044c3.738,4.414,8.629,6.292,14.283,6.398
		c7.182,0.135,13.268-2.24,17.627-8.15c3.554-4.818,4.553-10.382,4.214-16.236c-0.3-5.159-1.85-9.895-5.313-13.818
		c-4.977-5.637-11.409-7.539-18.702-6.823c-5.732,0.562-10.283,3.232-13.47,8.101c-0.051,0.078-0.152,0.122-0.4,0.313
		c0-2.864,0-5.555,0-8.232c-2.717,0-5.298,0-7.923,0C342.135,158.048,342.135,178.276,342.135,198.636z M638.564,119.754
		c0,20.892,0,41.7,0,62.512c5.021,0,9.965,0,14.932,0c0-20.859,0-41.663,0-62.512C648.514,119.754,643.605,119.754,638.564,119.754z
		 M310.355,182.559c0.639,0,1.282,0.042,1.917-0.006c7.835-0.603,14.083-3.908,18.09-10.85c2.585-4.478,3.263-9.37,2.762-14.461
		c-0.627-6.37-3.34-11.625-8.526-15.447c-5.336-3.932-11.413-4.872-17.868-4.141c-10.743,1.218-18.63,9.563-19.254,20.351
		c-0.331,5.714,0.67,11.076,4.138,15.752C296.265,180.029,302.749,182.538,310.355,182.559z M285.76,137.415
		c-7.023,0.185-12.38,2.958-15.845,9.152c0-2.942,0-5.884,0-8.815c-2.677,0-5.257,0-7.807,0c0,14.886,0,29.697,0,44.484
		c2.657,0,5.232,0,7.862,0c0-0.519,0-0.953,0-1.389c0-7.199-0.019-14.397,0.005-21.596c0.023-6.68,4.627-12.4,11.132-13.779
		c1.503-0.318,3.066-0.354,4.652-0.525C285.76,142.488,285.76,140.027,285.76,137.415z"/>
	<path fill-rule="evenodd" clip-rule="evenodd" fill="#FFC846" d="M140.393,73.841c3.458-3.257,6.991-6.438,10.353-9.791
		c3.926-3.917,7.701-7.984,11.542-11.987c-0.045-0.125-0.09-0.25-0.134-0.375c-7.904-0.762-15.809-1.524-24.059-2.32
		c18.416-11.373,36.547-22.57,54.804-33.846c11.61,12.355,23.193,24.682,34.9,37.14c-2.918,0-5.616,0.024-8.313-0.006
		c-3.036-0.034-6.072-0.147-9.107-0.144c-0.448,0-1.075,0.338-1.317,0.714c-5.656,8.762-12.35,16.701-19.32,24.419
		c-7.375,8.167-15.288,15.787-23.553,23.046c-0.418,0.368-0.869,0.701-1.304,1.049c0.017-0.438-0.01-0.884,0.057-1.314
		c0.449-2.862,0.926-5.72,1.377-8.582c0.748-4.744,1.476-9.491,2.227-14.234c0.607-3.841,1.237-7.68,1.855-11.52
		c0.7-4.35,1.424-8.695,2.089-13.05c0.467-3.06,0.853-6.131,1.274-9.198c0.059-0.087,0.119-0.173,0.172-0.263
		c0.002-0.003-0.056-0.041-0.086-0.063c-0.033,0.105-0.065,0.21-0.098,0.315c-0.235,0.318-0.504,0.617-0.701,0.958
		c-3.313,5.733-7.548,10.759-12.09,15.524c-4.379,4.595-9.133,8.792-14.237,12.573c-0.936,0.694-1.281,1.491-1.315,2.616
		c-0.033,1.131-0.287,2.256-0.444,3.384c-0.412-0.421-0.841-0.827-1.233-1.266C142.611,76.369,141.505,75.103,140.393,73.841z"/>
	<path fill-rule="evenodd" clip-rule="evenodd" fill="#44215A" d="M425.617,136.712c5.016,0,9.959,0,15.023,0
		c0,0.467,0,0.895,0,1.323c0,7.758-0.012,15.517,0.015,23.274c0.004,0.948,0.112,1.923,0.349,2.84
		c0.718,2.795,2.461,4.681,5.354,5.156c3.334,0.548,6.174-0.436,8.179-3.297c1.457-2.079,1.879-4.466,1.886-6.937
		c0.02-6.998,0.007-13.996,0.007-20.995c0-0.43,0-0.859,0-1.349c5.043,0,9.984,0,15.004,0c0,15.155,0,30.291,0,45.508
		c-4.963,0-9.931,0-14.975,0c0-2.24,0-4.462,0-6.684c-0.104-0.08-0.209-0.16-0.313-0.241c-0.115,0.229-0.206,0.475-0.351,0.684
		c-3.937,5.727-9.603,7.522-16.198,6.91c-8.232-0.764-13.808-7.104-13.998-16.082c-0.209-9.873-0.047-19.754-0.045-29.631
		C425.553,137.078,425.582,136.962,425.617,136.712z"/>
	<path fill-rule="evenodd" clip-rule="evenodd" fill="#44215A" d="M480.746,136.721c4.992,0,9.935,0,15.009,0
		c0,2.298,0,4.548,0,7.097c0.57-0.743,0.929-1.251,1.327-1.725c4.052-4.821,9.379-6.37,15.441-5.957
		c8.705,0.592,14.646,7.065,14.774,16.247c0.14,9.917,0.032,19.837,0.032,29.847c-4.959,0-9.892,0-14.981,0c0-0.389,0-0.81,0-1.229
		c0-7.76,0.013-15.519-0.007-23.278c-0.007-2.529-0.66-4.841-2.723-6.508c-4.671-3.772-11.974-1.007-13.516,5.128
		c-0.23,0.92-0.334,1.894-0.338,2.843c-0.027,7.239-0.015,14.479-0.015,21.719c0,0.432,0,0.863,0,1.354c-5.045,0-9.985,0-15.005,0
		C480.746,167.121,480.746,151.984,480.746,136.721z"/>
	<path fill-rule="evenodd" clip-rule="evenodd" fill="#44215A" d="M550.23,182.265c-5.094,0-10.04,0-15.033,0
		c0-15.193,0-30.332,0-45.533c4.99,0,9.932,0,15.001,0c0,2.267,0,4.521,0,6.931c1.116-1.215,2.019-2.368,3.09-3.335
		c3.927-3.547,8.657-4.537,13.791-4.183c8.47,0.584,14.587,6.938,14.704,16.316c0.123,9.798,0.026,19.599,0.023,29.397
		c0,0.113-0.035,0.227-0.063,0.4c-4.944,0-9.88,0-14.914,0c0-0.475,0-0.904,0-1.333c0-7.76,0.007-15.519-0.003-23.278
		c-0.006-3.756-1.844-6.622-4.861-7.647c-4.326-1.471-9.229,0.695-10.884,4.954c-0.509,1.309-0.798,2.785-0.813,4.189
		c-0.079,7.238-0.037,14.479-0.037,21.718C550.23,181.295,550.23,181.729,550.23,182.265z"/>
	<path fill-rule="evenodd" clip-rule="evenodd" fill="#44215A" d="M601.223,163.555c0.941,5.164,6.044,8.553,11.564,7.878
		c3.628-0.443,6.67-2.027,9.3-4.551c0.169,0.14,0.296,0.227,0.402,0.333c2.49,2.482,4.979,4.968,7.523,7.508
		c-2.863,3.22-6.287,5.464-10.337,6.694c-6.896,2.097-13.801,2.156-20.532-0.56c-7.843-3.164-11.947-9.275-13.027-17.514
		c-0.579-4.415-0.226-8.781,1.372-12.971c3.096-8.115,9.185-12.525,17.597-13.86c4.382-0.695,8.783-0.547,13.048,0.792
		c7.901,2.482,12.211,8.184,13.989,16.024c0.753,3.321,0.896,6.7,0.659,10.226C622.224,163.555,611.734,163.555,601.223,163.555z
		 M618.151,155.418c0.092-4.701-2.987-8.252-7.355-8.611c-5.128-0.422-9.188,3.07-9.959,8.611
		C606.584,155.418,612.322,155.418,618.151,155.418z"/>
	<path fill-rule="evenodd" clip-rule="evenodd" fill="#44215A" d="M198.996,182.32c0-19.755,0-39.335,0-58.997
		c0.339-0.016,0.646-0.042,0.952-0.042c8.036-0.002,16.071-0.023,24.106,0.003c14.003,0.046,25.907,9.372,28.735,22.877
		c3.958,18.911-8.604,34.003-25.7,35.926c-1.346,0.151-2.708,0.22-4.062,0.224c-7.556,0.021-15.111,0.01-22.667,0.01
		C199.93,182.32,199.5,182.32,198.996,182.32z M207.178,174.857c6.146,0,12.217,0.012,18.288-0.016
		c0.751-0.003,1.507-0.178,2.25-0.329c10.026-2.053,16.767-9.958,17.404-20.397c0.662-10.851-6.184-20.302-16.75-22.743
		c-2.723-0.629-5.623-0.588-8.446-0.655c-4.227-0.102-8.458-0.026-12.745-0.026C207.178,145.436,207.178,160.093,207.178,174.857z"
		/>
	<path fill-rule="evenodd" clip-rule="evenodd" fill="#44215A" d="M663.407,166.746c3.605,2.452,7.385,4.353,11.597,5.1
		c2.169,0.385,4.445,0.489,6.641,0.314c2.281-0.183,3.397-2.038,2.409-3.62c-0.43-0.688-1.229-1.307-1.995-1.59
		c-2.612-0.967-5.293-1.745-7.932-2.641c-3.093-1.05-6.156-2.104-8.847-4.104c-6.408-4.764-5.277-15.203-0.22-19.472
		c3.547-2.994,7.678-4.373,12.191-4.666c7.403-0.48,14.346,1.167,20.78,4.886c0.203,0.118,0.388,0.265,0.604,0.416
		c-1.701,3.286-3.381,6.531-4.902,9.47c-3.818-1.34-7.447-2.763-11.174-3.849c-1.593-0.465-3.407-0.418-5.089-0.259
		c-1.738,0.165-2.531,1.064-2.658,2.299c-0.13,1.257,0.45,2.216,2.102,2.826c2.611,0.965,5.293,1.737,7.929,2.64
		c1.959,0.67,3.941,1.305,5.825,2.15c4.387,1.968,7.473,5.071,7.908,10.115c0.452,5.247-1.263,9.588-5.718,12.647
		c-3.18,2.184-6.761,3.214-10.558,3.49c-8.115,0.591-15.718-0.941-22.575-5.551c-0.946-0.637-0.999-1.122-0.496-2.089
		C660.681,172.472,662.008,169.62,663.407,166.746z"/>
	<path fill-rule="evenodd" clip-rule="evenodd" fill="#44215A" d="M424.588,120.821c-0.648,3.806-1.289,7.566-1.944,11.411
		c-1.154-0.315-2.2-0.742-3.279-0.858c-1.244-0.133-2.565-0.199-3.766,0.08c-1.945,0.453-3.002,1.933-3.105,3.915
		c-0.058,1.115-0.01,2.237-0.01,3.466c3.325,0,6.625,0,9.995,0c0,3.405,0,6.699,0,10.085c-3.332,0-6.596,0-9.973,0
		c0,11.141,0,22.192,0,33.321c-5.048,0-9.982,0-15.012,0c0-11.027,0-22.082,0-33.272c-2.101,0-4.112,0-6.192,0
		c0-3.394,0-6.654,0-10.039c1.984,0,3.998,0,6.138,0c0-1.426,0-2.732,0-4.038c0-8.05,4.414-13.605,12.364-15.339
		C414.801,118.463,419.706,119.052,424.588,120.821z"/>
	<path fill-rule="evenodd" clip-rule="evenodd" fill="#44215A" d="M342.135,198.636c0-20.359,0-40.588,0-60.887
		c2.625,0,5.207,0,7.923,0c0,2.678,0,5.368,0,8.232c0.248-0.191,0.349-0.235,0.4-0.313c3.187-4.868,7.738-7.539,13.47-8.101
		c7.293-0.716,13.726,1.187,18.702,6.823c3.464,3.924,5.014,8.659,5.313,13.818c0.339,5.854-0.66,11.418-4.214,16.236
		c-4.359,5.91-10.445,8.285-17.627,8.15c-5.654-0.106-10.544-1.984-14.283-6.398c-0.284-0.335-0.546-0.688-0.805-1.044
		c-0.235-0.322-0.451-0.658-0.871-1.276c0,8.43,0,16.566,0,24.759C347.38,198.636,344.798,198.636,342.135,198.636z
		 M364.991,175.689c6.791,0.008,12.202-3.948,14.151-10.425c0.779-2.59,0.933-5.237,0.591-7.943
		c-1.245-9.859-11.021-15.826-20.238-12.151c-6.257,2.493-9.046,7.524-9.412,14.044
		C349.561,168.515,356.067,175.679,364.991,175.689z"/>
	<path fill-rule="evenodd" clip-rule="evenodd" fill="#FECD78" d="M144.966,78.889c0.157-1.128,0.411-2.253,0.444-3.384
		c0.034-1.125,0.379-1.922,1.315-2.616c5.104-3.781,9.858-7.978,14.237-12.573c4.542-4.765,8.776-9.791,12.09-15.524
		c0.197-0.341,0.466-0.64,0.701-0.958l0.012,0.01c-0.422,3.066-0.807,6.138-1.274,9.198c-0.665,4.354-1.389,8.7-2.089,13.05
		c-0.618,3.84-1.248,7.678-1.855,11.52c-0.751,4.743-1.479,9.49-2.227,14.234c-0.452,2.862-0.929,5.72-1.377,8.582
		c-0.067,0.431-0.041,0.876-0.057,1.314c-1.444,1.241-2.864,2.512-4.337,3.717c-3.01,2.464-5.999,4.958-9.088,7.319
		c-3.451,2.636-7.004,5.138-10.513,7.698c0.136-1.738,0.257-3.477,0.413-5.212c0.241-2.689,0.494-5.378,0.764-8.064
		c0.374-3.711,0.777-7.418,1.15-11.129c0.271-2.686,0.507-5.376,0.771-8.063C144.345,84.967,144.659,81.928,144.966,78.889z"/>
	<path fill-rule="evenodd" clip-rule="evenodd" fill="#F7953A" d="M64.984,117.006c3.842-1.537,7.704-3.028,11.523-4.621
		c4.667-1.947,9.3-3.979,13.947-5.973c3.255,4.109,6.5,8.227,9.77,12.325c3.146,3.943,6.313,7.87,9.484,11.793
		c1.744,2.158,3.516,4.293,5.274,6.438c-0.208,0.175-0.394,0.389-0.626,0.518c-2.754,1.521-5.476,3.108-8.284,4.521
		c-5.084,2.558-10.222,5.01-15.336,7.506c-0.083-0.219-0.117-0.476-0.256-0.649c-2.89-3.632-5.787-7.257-8.692-10.875
		c-3.08-3.834-6.178-7.654-9.253-11.493C70.006,123.342,67.5,120.17,64.984,117.006z"/>
	<path fill-rule="evenodd" clip-rule="evenodd" fill="#FAA53E" d="M114.983,136.969c-1.759-2.146-3.531-4.281-5.275-6.438
		c-3.171-3.923-6.338-7.851-9.484-11.793c-3.27-4.098-6.514-8.216-9.77-12.325c3.933-1.946,7.928-3.775,11.78-5.869
		c4.382-2.382,8.636-5,12.945-7.515c2.235,2.781,4.475,5.558,6.704,8.343c3.368,4.211,6.728,8.43,10.093,12.644
		c2.176,2.725,4.356,5.447,6.535,8.17c-0.181,0.155-0.347,0.333-0.544,0.462c-4.53,2.966-9.026,5.988-13.611,8.868
		C121.298,133.439,118.112,135.159,114.983,136.969z"/>
	<path fill-rule="evenodd" clip-rule="evenodd" fill="#F47B33" d="M44.11,165.547c-0.356-0.186-0.85-0.276-1.05-0.569
		c-7.978-11.609-15.928-23.237-23.88-34.864c-0.107-0.158-0.183-0.336-0.325-0.601c1.966-0.296,3.876-0.464,5.729-0.883
		c6.101-1.38,12.181-2.851,18.269-4.284c0.192-0.045,0.391-0.063,0.586-0.094c0.098,0.292,0.129,0.635,0.306,0.867
		c0.915,1.2,1.864,2.375,2.808,3.552c3.131,3.904,6.266,7.805,9.396,11.708c3.355,4.184,6.702,8.374,10.067,12.55
		c1.336,1.658,2.71,3.285,4.067,4.926c-0.06,0.052-0.111,0.128-0.18,0.151c-7.467,2.591-15.027,4.855-22.748,6.566
		c-0.928,0.205-1.82,0.571-2.729,0.863C44.321,165.474,44.215,165.51,44.11,165.547z"/>
	<path fill-rule="evenodd" clip-rule="evenodd" fill="#5A205A" d="M140.382,231.024c3.156-0.449,6.35-0.72,9.458-1.389
		c4.785-1.03,9.511-2.335,14.262-3.523c0.15-0.037,0.299-0.075,0.673-0.17c-0.284,0.462-0.453,0.78-0.661,1.07
		c-7.246,10.135-14.495,20.266-21.743,30.397c-0.319,0.446-0.522,0.858-1.302,0.671c-7.049-1.688-14.08-3.483-21.184-4.909
		c-8.993-1.804-18.047-3.3-27.08-4.897c-0.858-0.151-1.381-0.55-1.869-1.257c-5.09-7.384-10.216-14.743-15.33-22.111
		c-0.131-0.188-0.229-0.398-0.34-0.593c3.902-0.997,7.749-1.98,11.596-2.964c0.101,0.301,0.168,0.616,0.306,0.899
		c1.694,3.484,3.383,6.972,5.104,10.443c2.2,4.441,4.432,8.867,6.636,13.307c0.208,0.42,0.315,0.892,0.469,1.339
		c-0.724,0.128-1.448,0.255-2.172,0.382c0.521,0.108,1.04,0.151,1.549,0.102c2.21-0.216,4.43-0.375,6.624-0.707
		c4.977-0.752,9.977-1.418,14.901-2.438c8.534-1.767,16.761-4.48,24.275-9.021c2.688-1.624,5.338-3.335,7.369-5.812
		c0.033-0.035,0.066-0.071,0.099-0.107c-0.036,0.033-0.072,0.065-0.108,0.098c-0.43,0.053-0.858,0.112-1.289,0.156
		C147.211,230.337,143.797,230.68,140.382,231.024z"/>
	<path fill-rule="evenodd" clip-rule="evenodd" fill="#44215A" d="M638.564,119.754c5.041,0,9.949,0,14.932,0
		c0,20.849,0,41.652,0,62.512c-4.967,0-9.911,0-14.932,0C638.564,161.454,638.564,140.646,638.564,119.754z"/>
	<path fill-rule="evenodd" clip-rule="evenodd" fill="#F68736" d="M70.083,157.855c-1.357-1.641-2.731-3.268-4.067-4.926
		c-3.365-4.176-6.711-8.366-10.067-12.55c-3.131-3.903-6.266-7.805-9.396-11.708c-0.944-1.178-1.893-2.353-2.808-3.552
		c-0.177-0.232-0.208-0.575-0.306-0.867c4.161-1.356,8.33-2.687,12.479-4.076c3.036-1.017,6.045-2.111,9.067-3.17
		c2.516,3.164,5.022,6.336,7.55,9.491c3.075,3.838,6.174,7.658,9.253,11.493c2.906,3.619,5.803,7.244,8.692,10.875
		c0.139,0.174,0.173,0.431,0.256,0.649c-0.529,0.27-1.041,0.583-1.59,0.802c-6.11,2.437-12.226,4.859-18.34,7.285
		c-0.077,0.053-0.154,0.105-0.231,0.159C70.411,157.792,70.247,157.824,70.083,157.855z"/>
	<path fill-rule="evenodd" clip-rule="evenodd" fill="#44215A" d="M310.355,182.559c-7.607-0.021-14.09-2.529-18.741-8.802
		c-3.468-4.676-4.469-10.038-4.138-15.752c0.624-10.787,8.511-19.133,19.254-20.351c6.455-0.731,12.532,0.208,17.868,4.141
		c5.186,3.822,7.898,9.077,8.526,15.447c0.501,5.091-0.177,9.983-2.762,14.461c-4.007,6.941-10.254,10.247-18.09,10.85
		C311.637,182.601,310.995,182.559,310.355,182.559z M325.313,160.066c-0.116-1.15-0.179-2.309-0.356-3.449
		c-0.916-5.896-5.272-10.586-11.029-11.917c-6.093-1.409-12.329,0.843-15.686,5.735c-2.698,3.934-3.352,8.341-2.542,12.938
		c1.021,5.788,4.099,10.06,9.914,11.762c5.824,1.705,11.196,0.735,15.545-3.753C324.179,168.268,325.246,164.339,325.313,160.066z"
		/>
	<path fill-rule="evenodd" clip-rule="evenodd" fill="#F9AD44" d="M138.512,122.187c-2.179-2.724-4.359-5.445-6.535-8.17
		c-3.365-4.214-6.725-8.433-10.093-12.644c-2.229-2.786-4.469-5.563-6.704-8.343c4.003-2.831,8.094-5.548,11.988-8.522
		c4.499-3.437,8.825-7.101,13.225-10.666c1.112,1.261,2.218,2.528,3.339,3.781c0.393,0.439,0.821,0.845,1.233,1.266
		c-0.307,3.04-0.621,6.079-0.92,9.119c-0.264,2.687-0.5,5.377-0.771,8.063c-0.374,3.711-0.777,7.418-1.15,11.129
		c-0.27,2.686-0.523,5.375-0.764,8.064c-0.156,1.735-0.277,3.474-0.413,5.212c-0.342,0.295-0.684,0.59-1.025,0.885
		C139.452,121.637,138.981,121.912,138.512,122.187z"/>
	<path fill-rule="evenodd" clip-rule="evenodd" fill="#F9AD44" d="M176.648,107.667c0.198-0.084,0.397-0.169,0.685-0.292
		c-0.6,4.174-1.18,8.226-1.766,12.277c-0.683,4.725-1.369,9.45-2.058,14.174c-0.597,4.096-1.199,8.191-1.799,12.286
		c-0.277,1.889-0.541,3.78-0.845,5.665c-0.059,0.364-0.18,0.814-0.436,1.036c-5.2,4.494-10.423,8.961-15.645,13.432
		c-0.058,0.05-0.144,0.067-0.216,0.1c0.204-1.332,0.413-2.664,0.611-3.997c0.438-2.941,0.87-5.883,1.304-8.825
		c0.319-1.83,0.657-3.657,0.954-5.491c0.786-4.854,1.56-9.709,2.328-14.565c0.221-1.401,0.405-2.808,0.634-4.414
		c-3.961,3.018-7.659,5.836-11.357,8.654c-0.483,0.312-0.967,0.623-1.451,0.934c-0.641-1.603-1.282-3.205-1.923-4.807
		c0.043-0.066,0.073-0.151,0.133-0.197c4.628-3.583,9.367-7.031,13.86-10.775c5.325-4.437,10.441-9.125,15.637-13.717
		c0.411-0.363,0.731-0.828,1.094-1.245l-0.011,0.013C176.469,107.83,176.559,107.748,176.648,107.667z"/>
	<path fill-rule="evenodd" clip-rule="evenodd" fill="#934621" d="M138.512,122.187c0.47-0.275,0.94-0.55,1.41-0.826
		c3.953-0.851,7.907-1.702,11.861-2.55c0.191-0.041,0.391-0.042,0.587-0.062c-3.609,3.196-7.116,6.521-10.858,9.552
		c-3.53,2.86-7.309,5.413-10.979,8.101c-0.343,0.201-0.694,0.39-1.029,0.604c-4.101,2.625-8.16,5.318-12.311,7.86
		c-3.024,1.852-6.17,3.505-9.262,5.247c-4.486,1.942-8.931,3.985-13.47,5.795c-3.427,1.366-6.973,2.435-10.466,3.636
		c-4.485,1.083-8.946,2.282-13.46,3.224c-6.988,1.455-14.059,2.346-21.206,2.535c-1.634,0.044-3.269,0.088-4.903,0.132
		c0.909-0.291,1.801-0.657,2.729-0.862c7.721-1.711,15.281-3.976,22.748-6.566c0.069-0.023,0.12-0.1,0.18-0.151
		c0.164-0.031,0.328-0.063,0.492-0.095c0.077-0.053,0.154-0.105,0.231-0.159c6.114-2.426,12.23-4.849,18.34-7.285
		c0.549-0.219,1.061-0.532,1.59-0.802c5.115-2.496,10.252-4.948,15.336-7.506c2.809-1.413,5.53-3.001,8.284-4.521
		c0.233-0.129,0.418-0.343,0.626-0.518c3.129-1.811,6.315-3.53,9.374-5.452c4.584-2.88,9.081-5.902,13.611-8.868
		C138.165,122.52,138.331,122.342,138.512,122.187z"/>
	<path fill-rule="evenodd" clip-rule="evenodd" fill="#EA5A94" d="M145.226,226.301c-1.834,1.337-3.669,2.672-5.501,4.012
		c-0.318,0.232-0.624,0.481-0.936,0.723c-3.552,2.082-7.104,4.164-10.657,6.246c-0.038-0.376-0.146-0.761-0.102-1.127
		c0.177-1.454,0.422-2.899,0.605-4.353c0.506-4.01,0.979-8.023,1.492-12.032c0.529-4.124,1.075-8.246,1.646-12.365
		c0.157-1.134,0.083-2.418,1.429-3.004c0.653-0.371,1.326-0.712,1.956-1.119c2.484-1.607,4.954-3.235,7.43-4.855
		c0.505-0.315,1.019-0.619,1.514-0.95c2.049-1.368,4.092-2.746,6.137-4.12c0.007,0.081,0.014,0.161,0.021,0.242
		c-0.094,0.506-0.2,1.01-0.279,1.518c-0.705,4.531-1.405,9.063-2.107,13.595c-0.565,3.515-1.152,7.026-1.688,10.545
		C145.829,221.598,145.543,223.952,145.226,226.301z"/>
	<path fill-rule="evenodd" clip-rule="evenodd" fill="#D52347" d="M77.511,171.979c2.826-1.207,5.653-2.408,8.473-3.629
		c0.427-0.185,0.816-0.458,1.222-0.689c1.408-0.565,2.816-1.131,4.224-1.695c0.054,0.271,0.06,0.563,0.169,0.809
		c1.932,4.369,3.879,8.73,5.816,13.097c1.468,3.311,2.904,6.636,4.393,9.938c1.16,2.572,2.378,5.119,3.571,7.678
		c-4.642,2.011-9.283,4.021-13.925,6.032c-0.438-0.896-0.904-1.779-1.311-2.689c-3.569-7.995-7.137-15.991-10.681-23.998
		C78.758,175.237,78.159,173.598,77.511,171.979z"/>
	<path fill-rule="evenodd" clip-rule="evenodd" fill="#AB2274" d="M97.187,217.819c0.738-0.321,1.477-0.643,2.214-0.964
		c0.886-0.36,1.783-0.699,2.658-1.086c3.503-1.55,6.999-3.114,10.498-4.673c0.875,1.994,1.683,4.021,2.639,5.976
		c3.497,7.157,7.043,14.29,10.571,21.431c-4.869,2.713-10.007,4.766-15.368,6.272c-1.118-2.422-2.196-4.861-3.36-7.261
		c-2.405-4.957-4.844-9.898-7.294-14.834C98.93,221.041,98.041,219.439,97.187,217.819z"/>
	<path fill-rule="evenodd" clip-rule="evenodd" fill="#C7214B" d="M77.511,171.979c0.648,1.619,1.247,3.259,1.951,4.852
		c3.543,8.007,7.112,16.003,10.681,23.998c0.407,0.91,0.873,1.793,1.311,2.688c-4.474,1.501-8.949,3.003-13.423,4.505
		c-0.257-0.342-0.582-0.651-0.759-1.03c-0.693-1.477-1.341-2.976-2.005-4.466c-3.239-7.271-6.487-14.538-9.706-21.818
		c-0.559-1.266-0.99-2.588-1.481-3.883C68.557,175.209,73.034,173.594,77.511,171.979z"/>
	<path fill-rule="evenodd" clip-rule="evenodd" fill="#44215A" d="M285.76,137.415c0,2.612,0,5.073,0,7.532
		c-1.586,0.172-3.149,0.207-4.652,0.525c-6.505,1.379-11.109,7.1-11.132,13.779c-0.024,7.198-0.005,14.396-0.005,21.596
		c0,0.436,0,0.87,0,1.389c-2.63,0-5.205,0-7.862,0c0-14.787,0-29.599,0-44.484c2.55,0,5.13,0,7.807,0c0,2.931,0,5.873,0,8.815
		C273.379,140.373,278.736,137.6,285.76,137.415z"/>
	<path fill-rule="evenodd" clip-rule="evenodd" fill="#81191C" d="M78.031,208.021c4.474-1.502,8.949-3.004,13.423-4.505
		c4.642-2.01,9.284-4.021,13.925-6.032c3.808-1.94,7.626-3.86,11.417-5.836c1.039-0.541,1.992-1.246,2.985-1.877
		c3.596-2.076,7.191-4.153,10.787-6.229c1.126-0.729,2.253-1.458,3.38-2.187c0.076-0.079,0.151-0.158,0.227-0.238l-0.011,0.021
		c1.03-0.512,2.061-1.022,3.09-1.533c4.98-1.229,9.96-2.459,14.94-3.688c-0.263,0.341-0.482,0.73-0.796,1.015
		c-1.214,1.095-2.441,2.179-3.696,3.227c-6.538,5.458-13.454,10.364-21.025,14.301c-3.182,1.654-6.4,3.239-9.601,4.855
		c-0.699,0.288-1.402,0.567-2.096,0.866c-14.119,6.082-28.609,10.593-44.197,10.476c-0.239-0.021-0.478-0.042-0.717-0.063
		c0.47-0.221,0.921-0.502,1.412-0.65C73.656,209.281,75.845,208.658,78.031,208.021z"/>
	<path fill-rule="evenodd" clip-rule="evenodd" fill="#F47B33" d="M130.533,136.402c3.669-2.688,7.448-5.241,10.979-8.101
		c3.743-3.032,7.249-6.356,10.858-9.552c7.818-3.586,15.637-7.174,23.458-10.753c0.168-0.077,0.375-0.067,0.563-0.098
		c-0.362,0.417-0.683,0.882-1.094,1.245c-5.195,4.592-10.312,9.28-15.637,13.717c-4.493,3.744-9.232,7.193-13.86,10.775
		c-0.06,0.046-0.089,0.131-0.133,0.197c-2.92,2.065-5.846,4.123-8.749,6.212c-0.205,0.147-0.409,0.608-0.326,0.792
		c0.583,1.285,1.243,2.536,1.878,3.796c-0.329,2.627-0.658,5.253-0.986,7.88c-0.232,1.595-0.472,3.188-0.693,4.785
		c-0.313,2.264-0.614,4.528-0.92,6.793c-0.457-0.66-1.024-1.27-1.351-1.989c-2.388-5.252-4.727-10.525-7.081-15.793
		c0.666-0.489,1.4-0.91,1.977-1.488c0.537-0.54,1.257-1.233,1.284-1.885C130.793,140.765,130.61,138.581,130.533,136.402z"/>
	<path fill-rule="evenodd" clip-rule="evenodd" fill="#BB214F" d="M78.031,208.021c-2.186,0.637-4.375,1.26-6.553,1.922
		c-0.491,0.148-0.942,0.43-1.412,0.65c-0.323-0.16-0.771-0.234-0.951-0.493c-6.675-9.585-13.326-19.188-19.979-28.788
		c-0.021-0.031-0.027-0.073-0.045-0.123c4.996-1.455,9.992-2.91,14.988-4.365c0.491,1.295,0.922,2.617,1.481,3.883
		c3.219,7.28,6.467,14.547,9.706,21.818c0.664,1.49,1.312,2.989,2.005,4.466C77.449,207.37,77.773,207.68,78.031,208.021z"/>
	<path fill-rule="evenodd" clip-rule="evenodd" fill="#F7AE79" d="M137.486,152.514c0.329-2.627,0.658-5.253,0.986-7.88
		c0.263-0.066,0.573-0.066,0.783-0.211c2.787-1.916,5.56-3.852,8.336-5.783c0.484-0.312,0.967-0.623,1.451-0.935
		c0.312,0.727,0.616,1.458,0.938,2.181c1.91,4.276,3.817,8.554,5.751,12.818c0.146,0.32,0.497,0.547,0.752,0.817
		c-0.434,2.942-0.866,5.884-1.304,8.825c-0.198,1.333-0.407,2.665-0.611,3.997c-2.599,1.985-5.198,3.972-7.797,5.956
		c-0.341-0.611-0.729-1.202-1.014-1.838c-1.903-4.244-3.761-8.509-5.684-12.744C139.273,155.955,138.352,154.247,137.486,152.514z"
		/>
	<path fill-rule="evenodd" clip-rule="evenodd" fill="#C3225C" d="M117.076,199.314c3.201-1.616,6.419-3.201,9.601-4.855
		c7.571-3.937,14.487-8.843,21.025-14.301c1.255-1.048,2.482-2.132,3.696-3.227c0.314-0.284,0.533-0.674,0.796-1.015
		c5.399-1.976,10.799-3.949,16.197-5.929c0.518-0.19,1.022-0.419,1.532-0.63c-0.292,0.409-0.523,0.884-0.884,1.22
		c-4.736,4.403-9.491,8.788-14.241,13.177c-0.748,0.576-1.511,1.135-2.241,1.732c-1.43,1.17-2.841,2.361-4.259,3.545
		c-2.553,1.839-5.105,3.677-7.658,5.516c-0.15,0.047-0.321,0.063-0.447,0.146c-2.98,1.955-5.955,3.918-8.931,5.88
		c-0.306,0.186-0.606,0.381-0.918,0.557c-4.165,2.361-8.33,4.72-12.495,7.079c-0.082-2.495-0.138-4.992-0.266-7.485
		C117.557,200.247,117.251,199.784,117.076,199.314z"/>
	<path fill-rule="evenodd" clip-rule="evenodd" fill="#872369" d="M97.187,217.819c0.854,1.62,1.743,3.222,2.557,4.861
		c2.45,4.936,4.889,9.877,7.294,14.834c1.164,2.399,2.243,4.839,3.36,7.261c-3.673,0.854-7.346,1.708-11.02,2.563
		c-0.154-0.447-0.261-0.919-0.469-1.339c-2.204-4.439-4.436-8.865-6.636-13.307c-1.72-3.472-3.409-6.959-5.104-10.443
		c-0.137-0.283-0.205-0.599-0.306-0.899C90.305,220.173,93.746,218.996,97.187,217.819z"/>
	<path fill-rule="evenodd" clip-rule="evenodd" fill="#DF4A6C" d="M117.076,199.314c0.176,0.47,0.481,0.933,0.506,1.409
		c0.128,2.493,0.185,4.99,0.266,7.485c-1.764,0.963-3.528,1.925-5.292,2.887c-3.499,1.56-6.995,3.124-10.498,4.674
		c-0.875,0.387-1.771,0.726-2.658,1.086c-2.725-0.557-5.457-1.081-8.173-1.676c-6.818-1.49-13.63-3.014-20.445-4.523
		c15.588,0.117,30.079-4.394,44.197-10.476C115.674,199.882,116.377,199.603,117.076,199.314z"/>
	<path fill-rule="evenodd" clip-rule="evenodd" fill="#E22D43" d="M154.798,183.755c4.75-4.389,9.505-8.773,14.241-13.177
		c0.361-0.336,0.593-0.811,0.884-1.22l-0.011,0.005c0.159-0.085,0.317-0.171,0.476-0.256c0.092,0.138,0.278,0.288,0.262,0.41
		c-0.423,3.149-0.859,6.298-1.31,9.443c-0.439,3.067-0.89,6.134-1.348,9.199c-0.86,5.754-1.73,11.506-2.596,17.26
		c-0.409-0.572-0.86-1.118-1.213-1.723c-0.298-0.511-0.458-1.1-0.72-1.634c-2.757-5.613-5.53-11.219-8.275-16.838
		C154.972,184.779,154.925,184.247,154.798,183.755z"/>
	<path fill-rule="evenodd" clip-rule="evenodd" fill="#F7953A" d="M91.431,165.965c-1.408,0.564-2.816,1.13-4.224,1.695
		c-1.07,0.004-2.14,0.009-3.21,0.013c0-2.709-0.001-5.419-0.002-8.128c3.493-1.201,7.039-2.27,10.466-3.636
		c4.539-1.81,8.984-3.853,13.471-5.795c0.183,0.439,0.508,0.875,0.523,1.32c0.064,1.904,0.037,3.812,0.042,5.718
		c-1.047,0.628-2.094,1.257-3.141,1.885c-0.772,0.388-1.544,0.777-2.318,1.162C99.17,162.121,95.3,164.043,91.431,165.965z"/>
	<path fill-rule="evenodd" clip-rule="evenodd" fill="#35133C" d="M99.378,247.338c3.673-0.854,7.346-1.709,11.02-2.563
		c5.361-1.507,10.499-3.56,15.368-6.272c0.789-0.407,1.577-0.814,2.366-1.222c3.552-2.082,7.104-4.164,10.657-6.246
		c0.532-0.004,1.063-0.007,1.594-0.011c3.415-0.345,6.829-0.688,10.244-1.034c0.43-0.044,0.859-0.104,1.289-0.156l0.01,0.01
		c-2.031,2.477-4.681,4.188-7.369,5.812c-7.514,4.541-15.741,7.255-24.275,9.021c-4.925,1.02-9.924,1.686-14.901,2.438
		c-2.194,0.332-4.414,0.491-6.624,0.707c-0.509,0.05-1.027,0.007-1.549-0.102C97.93,247.593,98.654,247.466,99.378,247.338z"/>
	<path fill-rule="evenodd" clip-rule="evenodd" fill="#E61F4F" d="M154.798,183.755c0.127,0.492,0.174,1.024,0.392,1.471
		c2.745,5.619,5.518,11.225,8.275,16.838c0.262,0.534,0.422,1.123,0.72,1.634c0.353,0.604,0.804,1.15,1.213,1.723
		c-1.166,1.595-2.314,3.202-3.505,4.779c-0.495,0.656-1.077,1.246-1.619,1.866c-0.326-0.359-0.754-0.669-0.962-1.087
		c-2.706-5.427-5.371-10.874-8.077-16.301c-0.208-0.418-0.644-0.723-0.974-1.08c-0.007-0.081-0.014-0.161-0.021-0.242
		c-0.647-1.441-1.295-2.882-1.943-4.323c1.419-1.184,2.83-2.375,4.26-3.545C153.287,184.89,154.05,184.331,154.798,183.755z"/>
	<path fill-rule="evenodd" clip-rule="evenodd" fill="#F49E7A" d="M137.486,152.514c0.866,1.733,1.788,3.441,2.588,5.205
		c1.922,4.235,3.781,8.5,5.684,12.744c0.285,0.636,0.673,1.227,1.014,1.838c-2.88,2.133-5.764,4.26-8.634,6.404
		c-0.333,0.249-0.591,0.598-0.883,0.9c-1.03,0.511-2.061,1.021-3.091,1.533c0.189-2.133,0.355-4.269,0.572-6.398
		c0.362-3.551,0.756-7.1,1.137-10.648c0.306-2.265,0.606-4.529,0.92-6.793C137.014,155.702,137.254,154.108,137.486,152.514z"/>
	<path fill-rule="evenodd" clip-rule="evenodd" fill="#FAA53E" d="M83.995,159.545c0,2.709,0.001,5.419,0.002,8.128
		c-2.898,0.162-5.798,0.481-8.694,0.455c-6.533-0.061-13.08-0.079-19.592-0.535c-3.896-0.271-7.735-1.337-11.601-2.046
		c0.105-0.037,0.211-0.073,0.316-0.11c1.634-0.045,3.269-0.089,4.903-0.133c7.146-0.189,14.217-1.08,21.206-2.535
		C75.049,161.827,79.51,160.628,83.995,159.545z"/>
	<path fill-rule="evenodd" clip-rule="evenodd" fill="#E51D5B" d="M150.26,193.598c0.33,0.357,0.765,0.662,0.974,1.08
		c2.706,5.427,5.372,10.874,8.077,16.301c0.208,0.418,0.636,0.728,0.962,1.087c-2.212,2.331-4.425,4.662-6.637,6.993
		c-0.169-0.159-0.399-0.288-0.497-0.483c-1.145-2.306-2.235-4.64-3.416-6.928c-0.529-1.024-1.228-1.961-1.849-2.938
		c0.702-4.531,1.402-9.063,2.107-13.595C150.061,194.607,150.167,194.104,150.26,193.598z"/>
	<path fill-rule="evenodd" clip-rule="evenodd" fill="#E31D67" d="M147.875,208.71c0.622,0.977,1.32,1.913,1.849,2.938
		c1.181,2.288,2.271,4.622,3.416,6.928c0.097,0.195,0.328,0.324,0.497,0.483c-2.804,2.414-5.607,4.828-8.411,7.242
		c0.318-2.349,0.603-4.703,0.96-7.046C146.722,215.736,147.309,212.225,147.875,208.71z"/>
	<path fill-rule="evenodd" clip-rule="evenodd" fill="#C3225C" d="M170.388,169.107c-0.159,0.085-0.317,0.171-0.476,0.256
		C170.071,169.278,170.229,169.192,170.388,169.107z"/>
	<path fill-rule="evenodd" clip-rule="evenodd" fill="#F47B33" d="M176.648,107.667c-0.089,0.081-0.179,0.163-0.269,0.244
		C176.469,107.83,176.559,107.748,176.648,107.667z"/>
	<path fill-rule="evenodd" clip-rule="evenodd" fill="#FECD78" d="M173.753,43.833c0.033-0.105,0.065-0.21,0.098-0.315
		c0.03,0.022,0.088,0.06,0.086,0.063c-0.054,0.089-0.114,0.176-0.172,0.263L173.753,43.833z"/>
	<path fill-rule="evenodd" clip-rule="evenodd" fill="#FFFFFF" d="M618.151,155.418c-5.829,0-11.567,0-17.314,0
		c0.771-5.541,4.831-9.033,9.959-8.611C615.164,147.166,618.243,150.717,618.151,155.418z"/>
	<path fill-rule="evenodd" clip-rule="evenodd" fill="#FFFFFF" d="M207.178,174.857c0-14.765,0-29.422,0-44.167
		c4.288,0,8.519-0.075,12.745,0.026c2.823,0.067,5.724,0.026,8.446,0.655c10.567,2.441,17.413,11.893,16.75,22.743
		c-0.638,10.439-7.378,18.345-17.404,20.397c-0.742,0.151-1.499,0.326-2.25,0.329C219.396,174.869,213.325,174.857,207.178,174.857z
		"/>
	<path fill-rule="evenodd" clip-rule="evenodd" fill="#FFFFFF" d="M364.991,175.689c-8.924-0.011-15.431-7.175-14.908-16.476
		c0.366-6.52,3.155-11.551,9.412-14.044c9.218-3.675,18.993,2.292,20.238,12.151c0.342,2.706,0.188,5.354-0.591,7.943
		C377.193,171.741,371.782,175.697,364.991,175.689z"/>
	<path fill-rule="evenodd" clip-rule="evenodd" fill="#35133C" d="M151.915,229.834c0.036-0.032,0.072-0.064,0.108-0.098
		c-0.033,0.036-0.066,0.072-0.099,0.107C151.925,229.844,151.915,229.834,151.915,229.834z"/>
	<path fill-rule="evenodd" clip-rule="evenodd" fill="#F47B33" d="M70.806,157.602c-0.077,0.054-0.154,0.106-0.231,0.159
		C70.652,157.707,70.729,157.654,70.806,157.602z"/>
	<path fill-rule="evenodd" clip-rule="evenodd" fill="#FFFFFF" d="M325.313,160.066c-0.067,4.272-1.134,8.201-4.153,11.316
		c-4.35,4.488-9.722,5.458-15.545,3.753c-5.814-1.702-8.893-5.974-9.914-11.762c-0.811-4.598-0.157-9.005,2.542-12.938
		c3.356-4.893,9.593-7.145,15.686-5.735c5.757,1.331,10.113,6.021,11.029,11.917C325.134,157.758,325.198,158.916,325.313,160.066z"
		/>
	<path fill-rule="evenodd" clip-rule="evenodd" fill="#FECD78" d="M156.483,153.522c-0.255-0.271-0.607-0.497-0.752-0.817
		c-1.934-4.265-3.841-8.542-5.751-12.818c-0.322-0.723-0.626-1.454-0.938-2.181c3.698-2.817,7.396-5.635,11.357-8.653
		c-0.229,1.606-0.413,3.013-0.634,4.414c-0.768,4.856-1.542,9.712-2.328,14.565C157.14,149.865,156.803,151.692,156.483,153.522z"/>
	<path fill-rule="evenodd" clip-rule="evenodd" fill="#F7953A" d="M147.591,138.64c-2.776,1.931-5.549,3.867-8.336,5.783
		c-0.21,0.145-0.52,0.145-0.783,0.211c-0.635-1.261-1.295-2.512-1.878-3.796c-0.083-0.184,0.121-0.645,0.326-0.792
		c2.903-2.09,5.829-4.147,8.749-6.212C146.309,135.436,146.95,137.038,147.591,138.64z"/>
	<path fill-rule="evenodd" clip-rule="evenodd" fill="#F68736" d="M108.498,157.152c-0.006-1.906,0.021-3.813-0.043-5.718
		c-0.015-0.445-0.34-0.881-0.523-1.32c3.091-1.742,6.237-3.396,9.261-5.247c4.151-2.542,8.21-5.235,12.311-7.86
		c0.335-0.214,0.686-0.403,1.029-0.604c0.078,2.178,0.261,4.362,0.168,6.534c-0.027,0.651-0.747,1.345-1.284,1.885
		c-0.576,0.578-1.311,0.999-1.977,1.488c-3.6,2.164-7.2,4.329-10.8,6.493c-0.45,0.246-0.897,0.499-1.35,0.74
		C113.027,154.747,110.762,155.949,108.498,157.152z"/>
	<path fill-rule="evenodd" clip-rule="evenodd" fill="#DB1581" d="M128.132,237.281c-0.789,0.407-1.577,0.814-2.366,1.222
		c-3.528-7.141-7.074-14.273-10.571-21.431c-0.956-1.954-1.763-3.981-2.639-5.977c1.764-0.962,3.527-1.924,5.292-2.887
		c4.165-2.359,8.331-4.718,12.495-7.079c0.312-0.176,0.612-0.371,0.918-0.557c0.647,1.275,1.295,2.552,1.942,3.827
		c-1.346,0.586-1.272,1.87-1.429,3.004c-0.571,4.119-1.117,8.241-1.646,12.365c-0.513,4.009-0.986,8.022-1.492,12.032
		c-0.184,1.453-0.428,2.898-0.605,4.353C127.985,236.521,128.094,236.905,128.132,237.281z"/>
	<path fill-rule="evenodd" clip-rule="evenodd" fill="#E31D67" d="M133.203,204.4c-0.647-1.275-1.294-2.552-1.942-3.827
		c2.976-1.962,5.951-3.925,8.931-5.88c0.126-0.083,0.297-0.099,0.447-0.146c0.65,1.293,1.3,2.586,1.949,3.878
		c-2.476,1.62-4.946,3.248-7.43,4.855C134.529,203.688,133.856,204.029,133.203,204.4z"/>
	<path fill-rule="evenodd" clip-rule="evenodd" fill="#E51D5B" d="M142.588,198.426c-0.649-1.292-1.299-2.585-1.949-3.878
		c2.553-1.839,5.105-3.677,7.658-5.516c0.647,1.441,1.295,2.882,1.942,4.323c-2.045,1.374-4.088,2.752-6.137,4.12
		C143.607,197.807,143.094,198.11,142.588,198.426z"/>
	<path fill-rule="evenodd" clip-rule="evenodd" fill="#E22D43" d="M91.431,165.965c3.87-1.922,7.739-3.844,11.608-5.766
		c0.774-0.385,1.545-0.774,2.318-1.162c0.336,0.421,0.776,0.794,0.993,1.269c2.229,4.884,4.431,9.78,6.622,14.681
		c1.509,3.375,2.965,6.773,4.493,10.14c0.714,1.575,1.541,3.099,2.317,4.646c-0.993,0.631-1.946,1.336-2.985,1.877
		c-3.791,1.976-7.609,3.896-11.417,5.836c-1.192-2.558-2.411-5.104-3.571-7.677c-1.489-3.302-2.925-6.627-4.393-9.938
		c-1.937-4.366-3.884-8.728-5.816-13.097C91.491,166.527,91.485,166.235,91.431,165.965z"/>
	<path fill-rule="evenodd" clip-rule="evenodd" fill="#E84A43" d="M119.781,189.771c-0.776-1.547-1.603-3.07-2.317-4.646
		c-1.527-3.366-2.983-6.765-4.493-10.14c-2.191-4.9-4.393-9.797-6.622-14.681c-0.217-0.475-0.656-0.848-0.993-1.269
		c1.047-0.628,2.094-1.257,3.141-1.885c2.265-1.203,4.53-2.405,6.794-3.609c0.453-0.241,0.9-0.494,1.35-0.74
		c0.223,0.22,0.532,0.399,0.654,0.666c1.053,2.279,2.079,4.572,3.101,6.866c2.546,5.716,5.096,11.431,7.622,17.156
		c0.883,2.002,1.702,4.033,2.55,6.051C126.972,185.618,123.376,187.695,119.781,189.771z"/>
	<path fill-rule="evenodd" clip-rule="evenodd" fill="#EC6543" d="M130.567,183.542c-0.848-2.018-1.667-4.049-2.55-6.051
		c-2.526-5.726-5.076-11.44-7.622-17.156c-1.021-2.294-2.047-4.587-3.101-6.866c-0.123-0.267-0.432-0.446-0.654-0.666
		c3.6-2.164,7.2-4.329,10.8-6.493c2.354,5.268,4.693,10.541,7.081,15.793c0.327,0.72,0.894,1.329,1.351,1.989
		c-0.38,3.549-0.774,7.098-1.136,10.648c-0.217,2.13-0.383,4.266-0.572,6.398l0.011-0.021c-0.076,0.08-0.151,0.159-0.227,0.238
		C132.821,182.084,131.694,182.813,130.567,183.542z"/>
	<path fill-rule="evenodd" clip-rule="evenodd" fill="#F49E7A" d="M133.947,181.355c0.076-0.079,0.151-0.158,0.227-0.238
		C134.099,181.197,134.023,181.276,133.947,181.355z"/>
</g>
</svg>
