<?xml version="1.0" standalone="no"?>
<!DOCTYPE svg PUBLIC "-//W3C//DTD SVG 20010904//EN"
 "http://www.w3.org/TR/2001/REC-SVG-20010904/DTD/svg10.dtd">
<svg version="1.0" xmlns="http://www.w3.org/2000/svg"
 width="512.000000pt" height="512.000000pt" viewBox="0 0 512.000000 512.000000"
 preserveAspectRatio="xMidYMid meet">

<g transform="translate(0.000000,512.000000) scale(0.100000,-0.100000)"
fill="#000000" stroke="none">
<path d="M4400 4055 l0 -85 140 0 140 0 0 -1410 0 -1410 -140 0 -140 0 0 -85
0 -85 360 0 360 0 0 85 0 85 -140 0 -140 0 0 1410 0 1410 140 0 140 0 0 85 0
85 -360 0 -360 0 0 -85z"/>
<path d="M1115 3773 c-78 -17 -153 -69 -199 -137 -19 -28 -231 -496 -472
-1041 -418 -944 -439 -993 -439 -1050 -1 -197 218 -309 387 -198 57 38 83 83
183 319 l87 204 528 0 c410 0 530 -3 537 -12 6 -7 45 -96 88 -198 112 -266
147 -315 252 -346 59 -18 87 -18 151 1 120 36 198 165 172 282 -13 55 -863
1975 -902 2036 -39 61 -106 113 -171 132 -47 14 -156 18 -202 8z m254 -1053
c87 -206 156 -378 154 -382 -5 -9 -663 -11 -663 -2 0 3 70 173 156 377 86 205
161 383 166 397 10 24 11 24 19 5 5 -11 81 -189 168 -395z"/>
<path d="M3400 3189 c-219 -11 -457 -70 -526 -131 -133 -117 -80 -331 92 -369
46 -10 63 -9 155 15 123 31 288 49 379 41 214 -19 333 -123 348 -302 2 -35 2
-63 -2 -63 -3 0 -39 9 -79 20 -170 48 -357 62 -537 40 -365 -44 -580 -259
-580 -580 0 -260 150 -460 403 -539 73 -22 99 -25 242 -25 146 0 167 3 240 27
93 31 185 83 260 149 l53 47 6 -38 c20 -124 178 -208 316 -168 72 21 131 72
159 137 22 51 22 53 19 603 -4 610 -4 602 -73 752 -77 168 -196 273 -378 335
-133 45 -282 60 -497 49z m316 -1074 c34 -8 81 -22 104 -31 l43 -17 -6 -85
c-10 -142 -68 -228 -192 -286 -145 -69 -353 -56 -444 27 -79 73 -81 232 -4
312 73 75 183 108 338 100 55 -3 128 -12 161 -20z"/>
</g>
</svg>
